<svg width="120" height="120" viewBox="0 0 120 120" fill="none" xmlns="http://www.w3.org/2000/svg">
<path fill-rule="evenodd" clip-rule="evenodd" d="M21.435 109.567L8.53739 93.4993C5.43424 89.6335 3.75 84.8798 3.75 79.987V21.8062C3.75 14.4774 9.61345 8.39614 17.1777 7.87969L76.9955 3.79569C81.3412 3.49898 85.6605 4.65409 89.2303 7.06764L110.247 21.2772C114.009 23.8207 116.25 27.9787 116.25 32.416V98.5619C116.25 105.734 110.485 111.672 103.079 112.128L36.6875 116.215C30.7775 116.579 25.065 114.089 21.435 109.567Z" fill="white"/>
<path d="M42.1806 50.9201V50.1584C42.1806 48.2276 43.727 46.6262 45.7201 46.4932L60.2376 45.5239L80.3142 75.0882V49.1405L75.1465 48.4517V48.0899C75.1465 46.1363 76.7283 44.5244 78.7468 44.421L91.9562 43.7444V45.6453C91.9562 46.5377 91.2926 47.301 90.3831 47.4548L87.2043 47.9924V90.0138L83.2149 91.3858C79.8821 92.5319 76.1717 91.3051 74.2637 88.426L54.773 59.0144V87.0861L60.7722 88.2342L60.6886 88.7907C60.4268 90.5337 58.9219 91.852 57.1014 91.933L42.1806 92.5971C41.9834 90.7228 43.3882 89.0459 45.3261 88.8423L47.2888 88.6361V51.2072L42.1806 50.9201Z" fill="black"/>
<path fill-rule="evenodd" clip-rule="evenodd" d="M77.5311 11.1254L17.7133 15.2094C14.1302 15.4541 11.3528 18.3347 11.3528 21.8062V79.987C11.3528 83.2489 12.4756 86.418 14.5444 88.9952L27.442 105.063C29.5273 107.66 32.8089 109.091 36.2041 108.882L102.595 104.795C105.998 104.586 108.647 101.857 108.647 98.5619V32.416C108.647 30.3772 107.617 28.4668 105.889 27.2981L84.872 13.0886C82.7301 11.6405 80.1385 10.9474 77.5311 11.1254ZM20.6795 22.7137C19.8475 22.0978 20.2435 20.8146 21.2886 20.7396L77.9334 16.6767C79.7382 16.5472 81.5316 17.0442 82.9912 18.0783L94.3566 26.1305C94.788 26.4362 94.5856 27.0961 94.0515 27.1252L34.0648 30.3876C32.2494 30.4863 30.4575 29.953 29.014 28.8844L20.6795 22.7137ZM31.2511 40.6152C31.2511 38.6664 32.8255 37.0566 34.8388 36.947L98.2617 33.493C100.224 33.3861 101.875 34.895 101.875 36.7943V94.0697C101.875 96.015 100.307 97.6231 98.2974 97.7374L35.276 101.323C33.0925 101.447 31.2511 99.7696 31.2511 97.6556V40.6152Z" fill="black"/>
</svg>
